<?xml version="1.0" encoding="utf-8"?>
<?xml-stylesheet type="text/css" href="../css/styles.css"?>
<!-- Generator: Adobe Illustrator 24.0.2, SVG Export Plug-In . SVG Version: 6.00 Build 0)  -->
<!DOCTYPE svg PUBLIC "-//W3C//DTD SVG 1.1//EN" "http://www.w3.org//Graphics/SVG/1.1/DTD/svg11.dtd">
<svg version="1.1" id="svg-logo" xmlns="http://www.w3.org/2000/svg" xmlns:xlink="http://www.w3.org/1999/xlink" x="0px" y="0px"
	 viewBox="0 0 972 350" xml:space="preserve">
	 
		<path d="M0.1,0h17.6v101.4L99.1,0h22.4L51.9,85.9l69.6,90.4h-22L40.7,99.9l-22.9,28.2v48.2H0.1V0z"/>
		<path d="M193.4,0h19.6l75.6,176.2h-19.1l-25.5-59.2h-82l-25.5,59.2h-19.1L193.4,0z M237,101.2l-33.8-80.9l-34.4,80.9H237z"/>
		<path d="M314,0h17.6v101.4L413,0h22.4l-69.6,85.9l69.6,90.4h-22l-58.9-76.3l-22.9,28.2v48.2H314V0z"/>
		<path d="M-0.3,176.1h40.5c8.3,0,15.6,0.6,21.9,1.7c6.2,1.1,12,3.5,17.4,7.1c6.2,4.2,11.2,9.6,14.8,16.4s5.5,13.9,5.5,21.5
			c0,14.3-6.4,26.1-19.1,35.3c9,3.7,16,9.5,21,17.3c5,7.8,7.5,16.8,7.5,27.1c0,8-1.9,15.7-5.7,23c-3.8,7.3-9,13.1-15.6,17.3
			c-4.7,3-9.6,5.1-14.5,6.5c-5,1.4-9.8,2.2-14.6,2.5c-4.8,0.3-10.9,0.5-18.3,0.6H-0.3V176.1z M35.8,251.5c7.5,0,13.8-0.3,18.8-0.9
			c5-0.6,9.7-2.1,14-4.3c4.1-2.2,7.5-5.6,10.1-10.2c2.6-4.6,3.9-9.4,3.9-14.4c0-4.7-1.3-9.3-3.9-13.8c-2.6-4.5-5.9-8-9.9-10.5
			c-3.8-2.3-8.3-3.7-13.3-4.4c-5-0.6-11.1-0.9-18.3-0.9H17v59.4H35.8z M38.3,336.4c8.2,0,15.2-0.3,20.9-0.9
			c5.7-0.6,10.9-2.1,15.5-4.4c4.9-2.6,8.9-6.6,12.1-11.9c3.2-5.3,4.7-10.8,4.7-16.5c0-7.5-1.9-14.1-5.8-19.7
			c-3.8-5.7-9.1-9.7-15.7-12c-7.2-2.4-18.8-3.6-34.8-3.6H17v69H38.3z"/>
		<path d="M213.2,351.2h-19.4L119,175h18.9l25.2,59.2h81.2l25.2-59.2h18.9L213.2,351.2z M170,250.1l33.5,80.9l34-80.9H170z"/>
		<path d="M314,176.1h41.7c6,0.1,11.4,0.3,16,0.7c4.6,0.4,9.2,1.2,13.7,2.6c4.5,1.4,8.8,3.5,12.8,6.3c6.7,4.7,11.9,10.9,15.5,18.5
			s5.3,15.9,5.3,24.9c0,17.5-6,31.1-18,40.8c-5.6,4.6-11.7,7.6-18.2,9.1c-6.6,1.5-14.2,2.3-23,2.3h-29.9v71.1H314V176.1z
			 M357.2,265.3c7,0,13-0.4,18-1.3c5-0.9,9.7-2.8,14-5.8c4.4-3,7.8-7.2,10.3-12.5c2.4-5.3,3.7-10.9,3.7-16.9c0-7.6-1.7-14.2-5.2-20
			c-3.5-5.8-8.3-10.1-14.5-12.9c-5.8-2.7-13.2-4.1-22.3-4.1c-1.2,0-3,0-5.4,0.1c-2.4,0.1-4.2,0.1-5.3,0.1h-20.4v73.2H357.2z"/>
		<path d="M562.4,176.1v176.2h-15.9v-155l-90,155h-16.1V176.1h15.9v146.2l84.4-146.2H562.4z"/>
		<path d="M648.9,176.1h17.6l68,176.2h-17.2l-23-59.2h-73.8l-23,59.2h-17.2L648.9,176.1z M688.1,277.3l-30.4-80.9l-30.9,80.9H688.1z"
			/>
		<path d="M752.5,176.1h15.9v77.5h82.2v-77.5h15.9v176.2h-15.9v-82.8h-82.2v82.8h-15.9V176.1z"/>
		<path d="M920,192.1h-36.3v-16h88.4v16h-36.3v160.3H920V192.1z"/>
</svg>
